<?xml version="1.0" standalone="yes"?>

<svg version="1.1" viewBox="0.0 0.0 720.0 540.0" fill="none" stroke="none" stroke-linecap="square" stroke-miterlimit="10" xmlns="http://www.w3.org/2000/svg" xmlns:xlink="http://www.w3.org/1999/xlink"><clipPath id="p.0"><path d="m0 0l720.0 0l0 540.0l-720.0 0l0 -540.0z" clip-rule="nonzero"></path></clipPath><g clip-path="url(#p.0)"><path fill="#000000" fill-opacity="0.0" d="m0 0l720.0 0l0 540.0l-720.0 0z" fill-rule="nonzero"></path><path fill="#000000" fill-opacity="0.0" d="m238.43307 181.46455l0 0c0 -26.814072 22.279999 -48.551178 49.763763 -48.551178l0 0c13.198181 0 25.855804 5.115204 35.188324 14.220306c9.33252 9.105118 14.57547 21.4543 14.57547 34.33087l0 0c0 26.814087 -22.279999 48.551178 -49.763794 48.551178l0 0c-27.483765 0 -49.763763 -21.737091 -49.763763 -48.551178z" fill-rule="nonzero"></path><path stroke="#0b5394" stroke-width="4.0" stroke-linejoin="round" stroke-linecap="butt" d="m238.43307 181.46455l0 0c0 -26.814072 22.279999 -48.551178 49.763763 -48.551178l0 0c13.198181 0 25.855804 5.115204 35.188324 14.220306c9.33252 9.105118 14.57547 21.4543 14.57547 34.33087l0 0c0 26.814087 -22.279999 48.551178 -49.763794 48.551178l0 0c-27.483765 0 -49.763763 -21.737091 -49.763763 -48.551178z" fill-rule="nonzero"></path><path fill="#000000" fill-opacity="0.0" d="m246.74803 144.50394l110.23622 0l0 85.51181l-110.23622 0z" fill-rule="nonzero"></path><path fill="#0b5394" d="m259.31052 199.58394l0 -34.359375l6.84375 0l8.140625 24.328125q1.125 3.390625 1.640625 5.078125q0.578125 -1.875 1.828125 -5.5l8.21875 -23.90625l6.125 0l0 34.359375l-4.390625 0l0 -28.765625l-9.984375 28.765625l-4.09375 0l-9.9375 -29.25l0 29.25l-4.390625 0zm39.9375 0l0 -34.359375l4.546875 0l0 30.296875l16.921875 0l0 4.0625l-21.46875 0z" fill-rule="nonzero"></path></g></svg>

